<svg width="159" height="104" viewBox="0 0 159 104" fill="none" xmlns="http://www.w3.org/2000/svg">
<g filter="url(#filter0_d_1566_21961)">
<rect x="20" y="25" width="104" height="44" rx="10" fill="#1A1B1F" shape-rendering="crispEdges"/>
<rect x="20.5" y="25.5" width="103" height="43" rx="9.5" stroke="#26272B" shape-rendering="crispEdges"/>
<g clip-path="url(#clip0_1566_21961)">
<path fill-rule="evenodd" clip-rule="evenodd" d="M36.4188 41.4355C36.0341 42.0999 35.9086 42.883 36.0665 43.6342C36.2244 44.3855 36.6544 45.0519 37.274 45.5052C37.8935 45.9585 38.6588 46.1668 39.4226 46.0899C40.1864 46.0131 40.8949 45.6565 41.4117 45.0889L42.1965 45.5422C42.2188 45.624 42.3272 45.6453 42.3832 45.5804C42.5171 45.4234 42.6653 45.28 42.8277 45.1502C43.0819 44.9457 43.0943 44.52 42.8117 44.3573L42.0783 43.9333C42.3077 43.203 42.2598 42.4138 41.9439 41.7166C41.628 41.0194 41.0662 40.463 40.366 40.1539C39.6657 39.8448 38.8761 39.8047 38.1481 40.0411C37.42 40.2775 36.8047 40.774 36.4197 41.4355M38.2241 44.5306C38.0203 44.4148 37.8414 44.2597 37.6978 44.0744C37.5541 43.8891 37.4485 43.6772 37.3871 43.451C37.3257 43.2247 37.3096 42.9885 37.3398 42.756C37.37 42.5235 37.446 42.2993 37.5632 42.0963C37.6804 41.8932 37.8366 41.7154 38.0229 41.573C38.2091 41.4306 38.4217 41.3264 38.6484 41.2665C38.875 41.2065 39.1113 41.192 39.3436 41.2238C39.5759 41.2556 39.7996 41.3329 40.0019 41.4515C40.4069 41.6889 40.7015 42.0769 40.8215 42.5308C40.9415 42.9846 40.8771 43.4675 40.6424 43.8741C40.4076 44.2806 40.0216 44.5779 39.5686 44.7009C39.1155 44.8239 38.6322 44.7627 38.2241 44.5306ZM43.9628 45.4995C43.6197 45.6441 43.3142 45.8652 43.0695 46.1459C42.8249 46.4266 42.6476 46.7595 42.5512 47.1191L42.1974 48.44L41.4117 48.8933C40.8939 48.3289 40.1862 47.9752 39.424 47.9C38.6618 47.8248 37.8986 48.0333 37.2805 48.4856C36.6624 48.938 36.2328 49.6024 36.074 50.3516C35.9152 51.1009 36.0382 51.8824 36.4197 52.5466C36.803 53.2112 37.4185 53.7107 38.1478 53.9492C38.8771 54.1876 39.6687 54.1481 40.3707 53.8383C41.0726 53.5285 41.6353 52.9703 41.9507 52.2708C42.266 51.5713 42.3118 50.78 42.0792 50.0489L51.5725 44.568C51.6864 44.5019 51.7782 44.4035 51.8363 44.2853C51.8943 44.1671 51.9161 44.0343 51.8988 43.9038C51.8815 43.7732 51.8259 43.6507 51.739 43.5517C51.6522 43.4527 51.538 43.3817 51.4108 43.3475L50.7859 43.1795C50.261 43.0391 49.7043 43.0776 49.2037 43.2889L43.9628 45.4995ZM37.5734 51.88C37.4549 51.6777 37.3775 51.454 37.3457 51.2217C37.3139 50.9894 37.3284 50.7531 37.3884 50.5265C37.4483 50.2998 37.5525 50.0872 37.6949 49.901C37.8373 49.7147 38.0151 49.5585 38.2182 49.4413C38.4212 49.324 38.6454 49.2481 38.8779 49.2179C39.1104 49.1877 39.3466 49.2038 39.5729 49.2652C39.7991 49.3266 40.011 49.4322 40.1963 49.5758C40.3816 49.7195 40.5367 49.8984 40.6525 50.1022C40.8846 50.5103 40.9458 50.9936 40.8228 51.4467C40.6998 51.8997 40.4026 52.2857 39.996 52.5205C39.5894 52.7552 39.1065 52.8196 38.6527 52.6996C38.1988 52.5796 37.8109 52.285 37.5734 51.88Z" fill="white"/>
<path d="M46.2419 48.6713C46.1702 48.7126 46.1115 48.7732 46.0724 48.8461C46.0332 48.919 46.0152 49.0014 46.0204 49.084C46.0256 49.1666 46.0537 49.2461 46.1016 49.3136C46.1496 49.3811 46.2154 49.4338 46.2917 49.4659L49.2019 50.6935C49.7025 50.9048 50.2592 50.9432 50.7841 50.8028L51.4099 50.6348C51.537 50.6004 51.651 50.5292 51.7377 50.4301C51.8243 50.331 51.8797 50.2085 51.8968 50.0779C51.9139 49.9474 51.892 49.8147 51.8338 49.6966C51.7757 49.5786 51.6838 49.4803 51.5699 49.4144L48.4854 47.633C48.4179 47.594 48.3412 47.5735 48.2632 47.5735C48.1852 47.5735 48.1086 47.594 48.041 47.633L46.2419 48.6713Z" fill="white"/>
</g>
<path d="M67.67 52.14C66.6433 52.14 65.7613 51.9347 65.024 51.524C64.296 51.104 63.736 50.516 63.344 49.76C62.952 48.9947 62.756 48.094 62.756 47.058C62.756 46.2833 62.868 45.588 63.092 44.972C63.316 44.3467 63.638 43.8147 64.058 43.376C64.478 42.928 64.9913 42.5873 65.598 42.354C66.214 42.1113 66.9047 41.99 67.67 41.99C68.1833 41.99 68.6873 42.0553 69.182 42.186C69.6767 42.3167 70.1107 42.5033 70.484 42.746C70.68 42.8673 70.8107 43.0167 70.876 43.194C70.9413 43.362 70.9553 43.53 70.918 43.698C70.8807 43.8567 70.8013 43.992 70.68 44.104C70.568 44.216 70.4233 44.2813 70.246 44.3C70.078 44.3093 69.8913 44.2487 69.686 44.118C69.3967 43.9313 69.084 43.796 68.748 43.712C68.412 43.628 68.0713 43.586 67.726 43.586C67.0633 43.586 66.5033 43.7213 66.046 43.992C65.5887 44.2627 65.2433 44.6547 65.01 45.168C64.7767 45.6813 64.66 46.3113 64.66 47.058C64.66 47.7953 64.7767 48.4253 65.01 48.948C65.2433 49.4707 65.5887 49.8673 66.046 50.138C66.5033 50.4087 67.0633 50.544 67.726 50.544C68.0807 50.544 68.4307 50.502 68.776 50.418C69.1213 50.3247 69.448 50.1847 69.756 49.998C69.9613 49.8767 70.1433 49.8253 70.302 49.844C70.47 49.8533 70.61 49.9093 70.722 50.012C70.834 50.1147 70.9087 50.2453 70.946 50.404C70.9833 50.5533 70.974 50.712 70.918 50.88C70.862 51.0387 70.75 51.1787 70.582 51.3C70.2087 51.5707 69.7607 51.7807 69.238 51.93C68.7247 52.07 68.202 52.14 67.67 52.14ZM74.4335 52.14C73.9389 52.14 73.4955 52.0467 73.1035 51.86C72.7209 51.664 72.4175 51.4027 72.1935 51.076C71.9789 50.7493 71.8715 50.3807 71.8715 49.97C71.8715 49.466 72.0022 49.0693 72.2635 48.78C72.5249 48.4813 72.9495 48.2667 73.5375 48.136C74.1255 48.0053 74.9142 47.94 75.9035 47.94H76.6035V48.948H75.9175C75.3389 48.948 74.8769 48.976 74.5315 49.032C74.1862 49.088 73.9389 49.186 73.7895 49.326C73.6495 49.4567 73.5795 49.6433 73.5795 49.886C73.5795 50.194 73.6869 50.446 73.9015 50.642C74.1162 50.838 74.4149 50.936 74.7975 50.936C75.1055 50.936 75.3762 50.866 75.6095 50.726C75.8522 50.5767 76.0435 50.376 76.1835 50.124C76.3235 49.872 76.3935 49.5827 76.3935 49.256V47.646C76.3935 47.1793 76.2909 46.8433 76.0855 46.638C75.8802 46.4327 75.5349 46.33 75.0495 46.33C74.7789 46.33 74.4849 46.3627 74.1675 46.428C73.8595 46.4933 73.5329 46.6053 73.1875 46.764C73.0102 46.848 72.8515 46.8713 72.7115 46.834C72.5809 46.7967 72.4782 46.722 72.4035 46.61C72.3289 46.4887 72.2915 46.358 72.2915 46.218C72.2915 46.078 72.3289 45.9427 72.4035 45.812C72.4782 45.672 72.6042 45.5693 72.7815 45.504C73.2109 45.3267 73.6215 45.2007 74.0135 45.126C74.4149 45.0513 74.7789 45.014 75.1055 45.014C75.7775 45.014 76.3282 45.1167 76.7575 45.322C77.1962 45.5273 77.5229 45.84 77.7375 46.26C77.9522 46.6707 78.0595 47.2027 78.0595 47.856V51.216C78.0595 51.5053 77.9895 51.7293 77.8495 51.888C77.7095 52.0373 77.5089 52.112 77.2475 52.112C76.9862 52.112 76.7809 52.0373 76.6315 51.888C76.4915 51.7293 76.4215 51.5053 76.4215 51.216V50.544H76.5335C76.4682 50.8707 76.3375 51.1553 76.1415 51.398C75.9549 51.6313 75.7169 51.8133 75.4275 51.944C75.1382 52.0747 74.8069 52.14 74.4335 52.14ZM83.7838 52.14C83.2051 52.14 82.6964 51.9953 82.2578 51.706C81.8284 51.4167 81.5438 51.0293 81.4038 50.544L81.5578 50.194V51.216C81.5578 51.5053 81.4831 51.7293 81.3338 51.888C81.1844 52.0373 80.9744 52.112 80.7038 52.112C80.4238 52.112 80.2091 52.0373 80.0598 51.888C79.9104 51.7293 79.8358 51.5053 79.8358 51.216V42.9C79.8358 42.6107 79.9104 42.3913 80.0598 42.242C80.2091 42.0927 80.4238 42.018 80.7038 42.018C80.9838 42.018 81.1984 42.0927 81.3478 42.242C81.5064 42.3913 81.5858 42.6107 81.5858 42.9V46.54H81.4178C81.5671 46.0827 81.8564 45.714 82.2858 45.434C82.7151 45.154 83.2144 45.014 83.7838 45.014C84.3904 45.014 84.9178 45.1587 85.3658 45.448C85.8138 45.7373 86.1638 46.148 86.4158 46.68C86.6678 47.2027 86.7938 47.8327 86.7938 48.57C86.7938 49.298 86.6678 49.9327 86.4158 50.474C86.1638 51.006 85.8091 51.4167 85.3518 51.706C84.9038 51.9953 84.3811 52.14 83.7838 52.14ZM83.2938 50.81C83.6391 50.81 83.9424 50.726 84.2038 50.558C84.4651 50.39 84.6658 50.1427 84.8058 49.816C84.9551 49.48 85.0298 49.0647 85.0298 48.57C85.0298 47.8233 84.8711 47.268 84.5538 46.904C84.2364 46.5307 83.8164 46.344 83.2938 46.344C82.9484 46.344 82.6451 46.428 82.3838 46.596C82.1224 46.7547 81.9171 47.002 81.7678 47.338C81.6278 47.6647 81.5578 48.0753 81.5578 48.57C81.5578 49.3073 81.7164 49.8673 82.0338 50.25C82.3511 50.6233 82.7711 50.81 83.2938 50.81ZM91.6043 52.14C90.8296 52.14 90.1623 51.9953 89.6023 51.706C89.0423 51.4167 88.6083 51.006 88.3003 50.474C88.0016 49.942 87.8523 49.312 87.8523 48.584C87.8523 47.8747 87.997 47.254 88.2863 46.722C88.585 46.19 88.991 45.7747 89.5043 45.476C90.027 45.168 90.6196 45.014 91.2823 45.014C91.7676 45.014 92.2016 45.0933 92.5843 45.252C92.9763 45.4107 93.3076 45.6393 93.5783 45.938C93.8583 46.2367 94.0683 46.6007 94.2083 47.03C94.3576 47.45 94.4323 47.926 94.4323 48.458C94.4323 48.626 94.3716 48.7567 94.2503 48.85C94.1383 48.934 93.975 48.976 93.7603 48.976H89.2663V47.968H93.2003L92.9763 48.178C92.9763 47.7487 92.911 47.3893 92.7803 47.1C92.659 46.8107 92.477 46.5913 92.2343 46.442C92.001 46.2833 91.707 46.204 91.3523 46.204C90.9603 46.204 90.6243 46.2973 90.3443 46.484C90.0736 46.6613 89.8636 46.918 89.7143 47.254C89.5743 47.5807 89.5043 47.9727 89.5043 48.43V48.528C89.5043 49.2933 89.6816 49.8673 90.0363 50.25C90.4003 50.6233 90.9323 50.81 91.6323 50.81C91.875 50.81 92.1456 50.782 92.4443 50.726C92.7523 50.6607 93.0416 50.5533 93.3123 50.404C93.5083 50.292 93.681 50.2453 93.8303 50.264C93.9796 50.2733 94.0963 50.3247 94.1803 50.418C94.2736 50.5113 94.3296 50.628 94.3483 50.768C94.367 50.8987 94.339 51.034 94.2643 51.174C94.199 51.314 94.0823 51.4353 93.9143 51.538C93.5876 51.7433 93.2096 51.8973 92.7803 52C92.3603 52.0933 91.9683 52.14 91.6043 52.14ZM98.1562 52.14C97.3815 52.14 96.7982 51.9207 96.4062 51.482C96.0142 51.034 95.8182 50.3807 95.8182 49.522V42.9C95.8182 42.6107 95.8929 42.3913 96.0422 42.242C96.1915 42.0927 96.4062 42.018 96.6862 42.018C96.9662 42.018 97.1809 42.0927 97.3302 42.242C97.4889 42.3913 97.5682 42.6107 97.5682 42.9V49.438C97.5682 49.8673 97.6569 50.1847 97.8342 50.39C98.0209 50.5953 98.2822 50.698 98.6182 50.698C98.6929 50.698 98.7629 50.698 98.8282 50.698C98.8935 50.6887 98.9589 50.6793 99.0242 50.67C99.1549 50.6513 99.2435 50.6887 99.2902 50.782C99.3369 50.866 99.3602 51.0433 99.3602 51.314C99.3602 51.5473 99.3135 51.7293 99.2202 51.86C99.1269 51.9907 98.9729 52.07 98.7582 52.098C98.6649 52.1073 98.5669 52.1167 98.4642 52.126C98.3615 52.1353 98.2589 52.14 98.1562 52.14ZM103.343 52.14C102.633 52.14 102.017 51.9953 101.495 51.706C100.972 51.4167 100.566 51.006 100.277 50.474C99.9872 49.9327 99.8425 49.298 99.8425 48.57C99.8425 48.0193 99.9219 47.5293 100.081 47.1C100.249 46.6613 100.487 46.288 100.795 45.98C101.103 45.6627 101.471 45.4247 101.901 45.266C102.33 45.098 102.811 45.014 103.343 45.014C104.052 45.014 104.668 45.1587 105.191 45.448C105.713 45.7373 106.119 46.148 106.409 46.68C106.698 47.212 106.843 47.842 106.843 48.57C106.843 49.1207 106.759 49.6153 106.591 50.054C106.432 50.4927 106.199 50.8707 105.891 51.188C105.583 51.496 105.214 51.734 104.785 51.902C104.355 52.0607 103.875 52.14 103.343 52.14ZM103.343 50.81C103.688 50.81 103.991 50.726 104.253 50.558C104.514 50.39 104.715 50.1427 104.855 49.816C105.004 49.48 105.079 49.0647 105.079 48.57C105.079 47.8233 104.92 47.268 104.603 46.904C104.285 46.5307 103.865 46.344 103.343 46.344C102.997 46.344 102.694 46.428 102.433 46.596C102.171 46.7547 101.966 47.002 101.817 47.338C101.677 47.6647 101.607 48.0753 101.607 48.57C101.607 49.3073 101.765 49.8673 102.083 50.25C102.4 50.6233 102.82 50.81 103.343 50.81Z" fill="white"/>
</g>
<defs>
<filter id="filter0_d_1566_21961" x="-5" y="0" width="164" height="104" filterUnits="userSpaceOnUse" color-interpolation-filters="sRGB">
<feFlood flood-opacity="0" result="BackgroundImageFix"/>
<feColorMatrix in="SourceAlpha" type="matrix" values="0 0 0 0 0 0 0 0 0 0 0 0 0 0 0 0 0 0 127 0" result="hardAlpha"/>
<feOffset dx="5" dy="5"/>
<feGaussianBlur stdDeviation="15"/>
<feComposite in2="hardAlpha" operator="out"/>
<feColorMatrix type="matrix" values="0 0 0 0 0 0 0 0 0 0 0 0 0 0 0 0 0 0 0.06 0"/>
<feBlend mode="normal" in2="BackgroundImageFix" result="effect1_dropShadow_1566_21961"/>
<feBlend mode="normal" in="SourceGraphic" in2="effect1_dropShadow_1566_21961" result="shape"/>
</filter>
<clipPath id="clip0_1566_21961">
<rect width="16" height="16" fill="white" transform="translate(36 39)"/>
</clipPath>
</defs>
</svg>
